<svg width="512" height="298" xmlns="http://www.w3.org/2000/svg">

 <g>
  <title>background</title>
  <rect fill="none" id="canvas_background" height="300" width="514" y="-1" x="-1"/>
 </g>
 <g>
  <title>Layer 1</title>
  <rect x="0" fill="#ffffff" id="svg_2" y="-0.228565" width="512" height="298.7" class="st0"/>
  <polygon fill="#bd0034" id="svg_3" points="342.79998779296875,107.77140825986862 512,12.97141283750534 512,-0.22859084606170654 500.29998779296875,-0.22859084606170654 307.3999938964844,107.77140825986862 " class="st1"/>
  <polygon fill="#bd0034" id="svg_4" points="334.79998779296875,196.47232073545456 512,295.5734712481499 512,275.7734834551811 370.20001220703125,196.47232073545456 " class="st1"/>
  <polygon fill="#bd0034" id="svg_5" points="0,22.47140520811081 151.5,107.77140825986862 187,107.77140825986862 0,2.57141250371933 " class="st1"/>
  <polygon fill="#bd0034" id="svg_6" points="178.89999389648438,196.47232073545456 0,296.6734773516655 0,298.47346514463425 32.29999923706055,298.47346514463425 214.39999389648438,196.47232073545456 " class="st1"/>
  <polygon fill="#1a237b" id="svg_7" points="477,-0.22859084606170654 297.70001220703125,-0.22859084606170654 297.70001220703125,100.17141741514206 " class="st2"/>
  <polygon fill="#1a237b" id="svg_8" points="218.5,-0.22859084606170654 40,-0.22859084606170654 218.5,100.17141741514206 " class="st2"/>
  <polygon fill="#1a237b" id="svg_9" points="512,107.77140825986862 512,39.17141741514206 390.3999938964844,107.77140825986862 " class="st2"/>
  <polygon fill="#1a237b" id="svg_10" points="512,264.1734773516655 512,196.47232073545456 390.3999938964844,196.47232073545456 " class="st2"/>
  <polygon fill="#1a237b" id="svg_11" points="50.099998474121094,298.47346514463425 218.5,298.47346514463425 218.5,203.97245806455612 " class="st2"/>
  <polygon fill="#1a237b" id="svg_12" points="297.70001220703125,298.47346514463425 466.6000061035156,298.47346514463425 297.70001220703125,203.97245806455612 " class="st2"/>
  <polygon fill="#1a237b" id="svg_13" points="0,196.47232073545456 0,267.2734834551811 125.80000305175781,196.47232073545456 " class="st2"/>
  <polygon fill="#1a237b" id="svg_14" points="0,107.77140825986862 125.80000305175781,107.77140825986862 0,36.77140825986862 " class="st2"/>
  <polygon fill="#bd0034" id="svg_15" points="234.39999389648438,-0.22859084606170654 234.39999389648438,125.47140520811081 0,125.47140520811081 0,178.67198199033737 234.39999389648438,178.67198199033737 234.39999389648438,298.47346514463425 281.8999938964844,298.47346514463425 281.8999938964844,178.67198199033737 512,178.67198199033737 512,125.47140520811081 281.8999938964844,125.47140520811081 281.8999938964844,-0.22859084606170654 " class="st1"/>
 </g>
</svg>